<?xml version="1.0" standalone="no"?>
<!DOCTYPE svg PUBLIC "-//W3C//DTD SVG 1.1//EN" "http://www.w3.org/Graphics/SVG/1.1/DTD/svg11.dtd" >
<svg xmlns="http://www.w3.org/2000/svg">
<metadata></metadata>
<defs>
<font id="dicsans90_ltlight" horiz-adv-x="1036" >
<font-face units-per-em="2048" ascent="1536" descent="-512" />
<missing-glyph horiz-adv-x="389" />
<glyph unicode="&#xfb01;" horiz-adv-x="1030" d="M61 915v107h127q2 240 69.5 334t240.5 94q164 0 391 -37l-12 -104q-62 10 -185.5 20t-189.5 10q-106 0 -145.5 -65.5t-39.5 -249.5h338v-109h-336v-915h-131v915h-127zM748 0v1024h131v-1024h-131z" />
<glyph unicode="&#xfb02;" horiz-adv-x="1030" d="M61 915v107h127q2 238 70 333t240 95q156 0 381 -35v-1415h-131v1323q-172 16 -246 16q-106 0 -145.5 -65.5t-39.5 -249.5h291v-109h-289v-915h-131v915h-127z" />
<glyph unicode="&#xfb03;" horiz-adv-x="1591" d="M61 915v107h127q1 122 19 201t58.5 125.5t98.5 65t146 18.5q38 0 118 -6.5t117 -12.5l-12 -102q-89 12 -213 12q-74 0 -115 -22.5t-63.5 -88.5t-22.5 -188h431q1 235 70 330.5t233 95.5q150 0 395 -35l-12 -106q-63 10 -185 20t-190 10q-104 0 -143 -66t-39 -249h335 v-109h-335v-915h-131v915h-429v-915h-131v915h-127zM1309 0v1024h131v-1024h-131z" />
<glyph unicode="&#xfb04;" horiz-adv-x="1591" d="M61 915v107h127q1 160 35 249.5t101.5 125t185.5 35.5q143 0 235 -15l-12 -106q-98 10 -215 10q-73 0 -114 -22t-64 -87.5t-23 -187.5h431q3 235 72 330.5t233 95.5q132 0 387 -35v-1415h-131v1323q-180 16 -248 16q-104 0 -143 -65.5t-39 -249.5h301v-109h-301v-915 h-131v915h-429v-915h-131v915h-127z" />
<glyph horiz-adv-x="0" />
<glyph horiz-adv-x="0" />
<glyph horiz-adv-x="682" />
<glyph unicode="&#xd;" horiz-adv-x="1024" />
<glyph unicode=" "  horiz-adv-x="389" />
<glyph unicode="&#x09;" horiz-adv-x="389" />
<glyph unicode="&#xa0;" horiz-adv-x="389" />
<glyph unicode="!" horiz-adv-x="505" d="M162 82q0 54 22.5 79t69.5 25t69.5 -25t22.5 -79t-21.5 -75t-70.5 -21t-70.5 21t-21.5 75zM188 1409h131l-8 -1020h-114z" />
<glyph unicode="&#x22;" horiz-adv-x="735" d="M139 938v451h117v-451h-117zM479 938v451h117v-451h-117z" />
<glyph unicode="#" d="M4 362v109h227v410h-227v106h227v371h115v-371h344v371h115v-371h227v-106h-227v-410h227v-109h-227v-362h-115v362h-344v-362h-115v362h-227zM344 471h348l-2 412h-346v-412z" />
<glyph unicode="$" d="M102 993q0 103 25.5 170.5t81.5 105t128.5 53t182.5 17.5l19 244l120 -8l-20 -244q148 -13 264 -41l-18 -121q-123 28 -264 41l-43 -479q80 -18 129.5 -33t93 -37t66.5 -46t39.5 -62.5t22 -85t5.5 -115.5q0 -106 -25.5 -177t-80.5 -112t-129 -59.5t-183 -21.5l-18 -228 l-121 8l18 224q-171 14 -286 41l18 120q44 -12 132.5 -26.5t154.5 -18.5l43 523q-114 25 -178.5 49.5t-106.5 67t-56 99.5t-14 152zM240 991q0 -121 47 -163.5t213 -79.5l39 466q-68 0 -112 -4.5t-83 -18t-60 -38t-32.5 -64.5t-11.5 -98zM492 98q73 0 125.5 10.5t94.5 36.5 t63.5 74t21.5 119q0 50 -4 84.5t-18 61.5t-30 43.5t-50 32t-67.5 25t-92.5 23.5z" />
<glyph unicode="%" horiz-adv-x="1073" d="M47 1016q0 190 51.5 268t173.5 78q121 0 173.5 -78.5t52.5 -267.5q0 -190 -52.5 -269t-173.5 -79q-122 0 -173.5 78.5t-51.5 269.5zM152 1016q0 -142 25 -196t95 -54t95.5 54.5t25.5 195.5t-25 194.5t-96 53.5q-70 0 -95 -54t-25 -194zM293 8l237 684l177 662l100 -37 l-213 -621l-199 -725zM623 334q0 190 51.5 268t173.5 78q121 0 173 -78.5t52 -267.5q0 -190 -52 -269t-173 -79q-122 0 -173.5 78.5t-51.5 269.5zM727 334q0 -141 25.5 -195.5t95.5 -54.5t95.5 54.5t25.5 195.5t-25 194.5t-96 53.5q-70 0 -95.5 -54t-25.5 -194z" />
<glyph unicode="&#x26;" horiz-adv-x="1368" d="M109 406q0 99 25 167.5t94 132.5t196 128q-76 98 -97.5 150t-21.5 140q0 153 95.5 228t258.5 75q168 0 258.5 -74.5t90.5 -226.5q0 -94 -20.5 -147.5t-86 -113.5t-213.5 -156l305 -385q69 102 106.5 204.5t67.5 309.5l103 -15q-33 -238 -73 -345.5t-130 -235.5l80 -88 q33 -37 65 -55.5t103 -45.5l-23 -102q-97 23 -140.5 46t-92.5 77l-78 88q-74 -80 -131.5 -116.5t-131 -50t-208.5 -13.5q-212 0 -306.5 105t-94.5 319zM238 406q0 -161 60 -238.5t218 -77.5q113 0 172 11.5t105.5 40.5t119.5 100l-417 514q-84 -44 -136.5 -84t-78.5 -84 t-34.5 -83.5t-8.5 -98.5zM436 1118q0 -76 32 -135.5t153 -200.5q75 50 117 82t73.5 61.5t44.5 59t18 59t5 76.5q0 199 -220 199q-105 0 -164 -49t-59 -152z" />
<glyph unicode="'" horiz-adv-x="407" d="M139 938v451h129v-451h-129z" />
<glyph unicode="(" horiz-adv-x="661" d="M154 649q0 305 73.5 532.5t210.5 440.5l119 -51q-60 -96 -103 -182.5t-84 -200.5t-62 -250t-21 -289t21 -287.5t61.5 -248.5t83.5 -200.5t104 -184.5l-117 -54q-139 214 -212.5 442t-73.5 533z" />
<glyph unicode=")" horiz-adv-x="657" d="M104 -266q60 96 103 184t83 201.5t60.5 248.5t20.5 287q0 153 -21 289t-61 249.5t-83 200.5t-102 183l117 53q90 -138 148.5 -269t97.5 -313.5t39 -392.5q0 -209 -38.5 -390.5t-97.5 -312.5t-149 -269z" />
<glyph unicode="*" d="M137 1014v112h297l-90 281l105 35l92 -283l237 174l70 -90l-244 -174l240 -172l-66 -92l-239 172l-90 -279l-109 35l92 281h-295z" />
<glyph unicode="+" d="M61 514v115h400v397h114v-397h400v-115h-400v-399h-114v399h-400z" />
<glyph unicode="," horiz-adv-x="491" d="M66 -262l118 436l152 -29l-174 -436z" />
<glyph unicode="-" horiz-adv-x="897" d="M162 473v115h573v-115h-573z" />
<glyph unicode="." horiz-adv-x="512" d="M156 96q0 58 21.5 84.5t68.5 26.5q48 0 70 -26.5t22 -84.5q0 -59 -22 -84.5t-70 -25.5t-69 25.5t-21 84.5z" />
<glyph unicode="/" d="M31 -25l837 1477l103 -59l-838 -1477z" />
<glyph unicode="0" d="M76 672q0 140 10 241t38.5 192.5t77 147.5t127.5 88.5t189 32.5q79 0 142 -16.5t109 -46.5t80 -77.5t55.5 -102.5t34 -130t17.5 -153t5 -176q0 -115 -7 -202.5t-25 -169t-50 -138t-80.5 -99t-118.5 -63t-162 -20.5q-79 0 -142 16t-109 45t-79.5 75.5t-55 100.5t-34 128.5 t-17.5 151.5t-5 175zM217 672q0 -98 3.5 -165.5t14 -138t31 -115.5t53.5 -82t82.5 -54t116.5 -17t116.5 17t82.5 54t53.5 82t31 115.5t14 138t3.5 165.5q0 99 -3.5 167t-14 139.5t-31 117t-53.5 83t-82.5 55t-116.5 17.5t-116.5 -17.5t-82.5 -55t-53.5 -83t-31 -117 t-14 -139.5t-3.5 -167zM375 854l53 33l221 -385l-53 -31z" />
<glyph unicode="1" d="M143 1147l398 203h108v-1229h285v-121h-760v121h338v1075l-328 -160z" />
<glyph unicode="2" d="M147 1288q78 33 181 59.5t172 26.5q197 0 298 -89.5t101 -278.5q0 -120 -20 -196t-78.5 -159.5t-184.5 -212.5l-297 -315h635l-4 -123h-800v117l362 391q110 117 161.5 191.5t68 135.5t16.5 156q0 134 -71.5 195t-211.5 61q-52 0 -138.5 -22.5t-160.5 -53.5z" />
<glyph unicode="3" d="M90 23l21 118q76 -17 184.5 -31t175.5 -14q168 0 246 70.5t78 228.5q0 55 -13.5 93t-35.5 61.5t-66.5 39.5t-88.5 24.5t-120 17.5h-190v117h194q150 41 210 96.5t60 167.5q0 132 -64 185.5t-216 53.5q-71 0 -161.5 -17.5t-162.5 -43.5l-28 113q83 29 186.5 50t185.5 21 q211 0 306.5 -80t95.5 -272q0 -136 -60.5 -201.5t-199.5 -115.5v-7q84 -13 137 -31t94.5 -52t59.5 -88t18 -134q0 -220 -110 -320t-339 -100q-167 0 -397 50z" />
<glyph unicode="4" d="M88 283v106l318 963h141l-314 -946h451q0 64 4 215t4 215h125v-430h195v-123h-195v-283h-135v283h-594z" />
<glyph unicode="5" d="M113 20l20 121q221 -45 340 -45q162 0 246 88.5t84 251.5q0 153 -68 222t-221 69q-105 0 -256 -92l-104 24l20 695h725v-123h-602l-14 -475q146 94 264 94q201 0 299 -101t98 -305q0 -226 -121.5 -347.5t-345.5 -121.5q-157 0 -364 45z" />
<glyph unicode="6" d="M88 532q0 169 15.5 298t51 234t93 172t143 102.5t199.5 35.5q157 0 336 -43l-19 -123q-176 43 -313 43q-81 0 -141 -24.5t-97.5 -66t-63 -111t-38 -142.5t-21.5 -178q65 45 144.5 80t148.5 35q212 0 317 -99.5t105 -302.5q0 -235 -105.5 -351t-328.5 -116 q-426 0 -426 557zM227 514q0 -62 6.5 -116.5t26 -111.5t50.5 -97t83 -65.5t121 -25.5q157 0 225 84.5t68 257.5q0 285 -295 285q-50 0 -108.5 -21t-89.5 -39t-78 -49q-9 -30 -9 -102z" />
<glyph unicode="7" d="M117 1227v125h829v-92l-493 -1260h-148l483 1227h-671z" />
<glyph unicode="8" d="M61 365q0 122 49.5 197t182.5 155q-75 39 -114 76t-59 94t-20 147q0 340 422 340q105 0 182 -15t138.5 -51.5t93 -103t31.5 -162.5q0 -68 -5.5 -110.5t-25.5 -89t-60.5 -87.5t-107.5 -87q81 -35 123.5 -69t65 -89.5t22.5 -142.5q0 -209 -108 -300.5t-349 -91.5 q-243 0 -352 90.5t-109 299.5zM201 375q0 -153 72 -218t249 -65q175 0 246.5 64.5t71.5 216.5q0 47 -9.5 78t-33.5 59.5t-74.5 52.5t-123.5 47.5t-189 53.5q-109 -64 -159 -127t-50 -162zM236 1028q0 -56 8.5 -91t31 -66.5t72 -56t119 -48.5t184.5 -55q60 46 95 81t53.5 73 t24 72.5t5.5 90.5q0 128 -75.5 180t-231.5 52q-144 0 -215 -53.5t-71 -178.5z" />
<glyph unicode="9" d="M88 922q0 212 110 332t314 120q121 0 207 -40.5t135.5 -119t71.5 -183t22 -243.5q0 -173 -13.5 -297.5t-46.5 -226.5t-89.5 -163t-142.5 -93.5t-205 -32.5q-152 0 -361 50l23 125q192 -54 331 -54q64 0 115 14t87 37.5t63 61.5t43.5 79t27 98t15.5 109.5t8 122.5 q-51 -49 -132.5 -79.5t-160.5 -30.5q-205 0 -313.5 103.5t-108.5 310.5zM229 922q0 -146 74 -221.5t219 -75.5q82 0 146.5 27t136.5 79q4 23 4 74q0 105 -13.5 182.5t-46 139.5t-92 94t-145.5 32q-144 0 -213.5 -87t-69.5 -244z" />
<glyph unicode=":" horiz-adv-x="512" d="M156 96q0 58 21.5 84.5t68.5 26.5q48 0 70 -26.5t22 -84.5q0 -59 -22 -84.5t-70 -25.5t-69 25.5t-21 84.5zM156 846q0 58 21.5 84t68.5 26q48 0 70 -26t22 -84q0 -59 -22 -85t-70 -26t-69 25.5t-21 85.5z" />
<glyph unicode=";" horiz-adv-x="491" d="M66 -262l118 436l152 -29l-174 -436zM158 848q0 58 21.5 84t68.5 26q48 0 70 -26t22 -84q0 -59 -22 -85t-70 -26t-69 25.5t-21 85.5z" />
<glyph unicode="&#x3c;" d="M90 545v98l766 467l57 -119l-677 -395l677 -414l-57 -119z" />
<glyph unicode="=" d="M63 305v113h908v-113h-908zM63 670v112h908v-112h-908z" />
<glyph unicode="&#x3e;" d="M123 182l676 396l-676 413l57 119l766 -481v-99l-766 -467z" />
<glyph unicode="?" horiz-adv-x="741" d="M55 1360q149 49 285 49q346 0 346 -293q0 -76 -7.5 -124t-33 -95t-60 -84.5t-102.5 -99.5q-79 -75 -108 -127t-29 -125q0 -41 4 -115h-117q-16 70 -16 135q0 97 40 161t151 163q90 82 117.5 138.5t27.5 154.5q0 194 -234 194q-101 0 -241 -43zM203 82q0 54 22.5 79 t69.5 25t69.5 -25t22.5 -79t-21.5 -75t-70.5 -21t-70.5 21t-21.5 75z" />
<glyph unicode="@" horiz-adv-x="1617" d="M57 1276q129 52 312.5 85.5t320.5 33.5q417 0 591.5 -160t174.5 -545v-493q0 -157 -90.5 -270t-222.5 -113q-104 0 -155.5 45.5t-55.5 146.5l-2 170q-30 -103 -99 -148.5t-190 -45.5q-193 0 -268.5 91t-75.5 312q0 110 135 129l490 70q0 58 -1 94t-5.5 75.5t-11.5 61.5 t-20.5 45t-32 34.5t-46 21t-62 13t-81.5 3.5q-126 0 -322 -53l-21 106q200 55 359 55q66 0 115.5 -6t89 -21.5t66.5 -34.5t46 -53.5t30.5 -69.5t17.5 -92t8 -111.5t2 -135.5v-483q0 -66 20.5 -92.5t79.5 -26.5q74 0 127 84.5t53 196.5v460q0 127 -14.5 220.5t-48.5 164.5 t-84 117t-126.5 75t-170 40.5t-221.5 11.5q-126 0 -291.5 -31.5t-290.5 -78.5zM428 371q0 -162 52 -224.5t184 -62.5q101 0 156 33.5t79.5 114t24.5 229.5v26l-453 -67q-43 -12 -43 -49z" />
<glyph unicode="A" horiz-adv-x="1134" d="M55 0q72 304 191.5 702.5t228.5 688.5h187q112 -299 231 -695.5t186 -695.5h-145q-34 145 -86 322h-561q-25 -77 -90 -322h-142zM309 438h514q-51 187 -129.5 449.5t-124.5 388.5h-8q-44 -130 -123 -393t-129 -445z" />
<glyph unicode="B" horiz-adv-x="1118" d="M137 12v1383q247 14 355 14q268 0 379.5 -80t111.5 -282q0 -131 -55 -201.5t-166 -102.5q131 -30 194.5 -107.5t63.5 -223.5q0 -124 -27.5 -204t-92.5 -128t-160.5 -67t-243.5 -19q-156 0 -359 18zM274 117q151 -11 224 -11q211 0 293.5 66t82.5 236q0 150 -82.5 209 t-254.5 59h-263v-559zM274 782h263q159 0 233 65t74 191q0 146 -78.5 203t-271.5 57q-90 0 -220 -10v-506z" />
<glyph unicode="C" horiz-adv-x="989" d="M100 711q0 195 31.5 329.5t98 216.5t162 118t231.5 36q138 0 305 -37l-17 -125q-153 35 -278 35q-136 0 -219 -53.5t-125.5 -180t-42.5 -339.5q0 -142 17.5 -247.5t48.5 -173.5t80.5 -109.5t107 -58t133.5 -16.5q134 0 282 37l21 -125q-160 -38 -311 -38 q-102 0 -179.5 20t-144.5 70t-110 132t-67 209.5t-24 299.5z" />
<glyph unicode="D" horiz-adv-x="1181" d="M137 -8v1407q184 12 338 12q124 0 215.5 -18.5t168.5 -65t124.5 -124t73.5 -197t26 -283.5q0 -167 -25.5 -292.5t-74 -211.5t-124 -140t-170.5 -78t-218 -24q-89 0 -334 15zM276 111q113 -11 203 -11t159 19t126.5 63t94.5 115.5t57 178t20 247.5q0 136 -19.5 234.5 t-55 162t-93.5 101t-126.5 52.5t-162.5 15q-145 0 -203 -6v-1171z" />
<glyph unicode="E" horiz-adv-x="1015" d="M137 0v1391h772v-121h-633v-504h519v-115h-519v-530h639v-121h-778z" />
<glyph unicode="F" horiz-adv-x="995" d="M137 0v1391h758v-123h-619v-533h517v-121h-517v-614h-139z" />
<glyph unicode="G" horiz-adv-x="1140" d="M100 709q0 257 60 413t173.5 222.5t293.5 66.5q79 0 194 -16.5t189 -38.5l-25 -121q-67 17 -172 33t-174 16q-138 0 -222 -53t-127.5 -180t-43.5 -342q0 -171 26 -290.5t77 -188t117 -98.5t155 -30q137 0 258 27v547h133v-651q-70 -18 -189 -31.5t-198 -13.5 q-104 0 -183.5 22t-145 73.5t-108 135t-65.5 208t-23 290.5z" />
<glyph unicode="H" horiz-adv-x="1202" d="M137 0v1391h139v-639h650v639h139v-1391h-139v627h-650v-627h-139z" />
<glyph unicode="I" horiz-adv-x="432" d="M145 0v1391h140v-1391h-140z" />
<glyph unicode="J" horiz-adv-x="475" d="M10 -10l10 108q35 -6 74 -6q61 0 86 47.5t25 188.5v1063h139v-1074q0 -104 -13 -171t-42 -104t-67.5 -51t-96.5 -14q-48 0 -115 13z" />
<glyph unicode="K" d="M137 0v1391h139v-646l138 21q245 350 403 625h156q-104 -174 -148.5 -247t-121.5 -192.5t-160 -238.5q68 -101 151 -233.5t127.5 -206.5t163.5 -273h-160q-227 386 -403 637l-146 -21v-616h-139z" />
<glyph unicode="L" horiz-adv-x="870" d="M137 0v1391h139v-1266h541v-125h-680z" />
<glyph unicode="M" horiz-adv-x="1507" d="M137 0v1391h164l457 -930h4l442 930h166v-1391h-137v1155h-4l-420 -897h-104l-429 895h-2v-1153h-137z" />
<glyph unicode="N" horiz-adv-x="1265" d="M137 0v1391h129l723 -893v893h139v-1391h-135l-4 301l-713 883v-1184h-139z" />
<glyph unicode="O" horiz-adv-x="1232" d="M100 694q0 180 24.5 307t82.5 222t159.5 141.5t249.5 46.5q120 0 209 -31t148 -88.5t95.5 -147.5t51.5 -198.5t15 -251.5q0 -182 -24.5 -309t-83.5 -221t-160.5 -139t-250.5 -45q-120 0 -208.5 30.5t-147.5 86.5t-94.5 145.5t-50.5 198t-15 253.5zM248 694 q0 -120 9.5 -208t34 -163.5t66 -121.5t105.5 -71.5t153 -25.5t153.5 25.5t106 71.5t66 121t34 163.5t9.5 208.5q0 118 -9.5 206t-34.5 163.5t-66 122.5t-106 73.5t-153 26.5t-153 -26.5t-106 -73.5t-65.5 -122.5t-34 -163t-9.5 -206.5z" />
<glyph unicode="P" horiz-adv-x="1097" d="M137 0v1395q206 16 363 16q134 0 226.5 -22.5t157 -75.5t94.5 -141.5t30 -219.5q0 -254 -119 -362.5t-371 -108.5q-86 0 -127 6v121q27 -4 98 -4q101 0 168.5 16t115 56t68.5 107t21 169q0 193 -83.5 265.5t-280.5 72.5q-106 0 -219 -10v-1280h-142z" />
<glyph unicode="Q" horiz-adv-x="1222" d="M94 694q0 141 15.5 249t52 198.5t95.5 148.5t148 89.5t207 31.5t206.5 -31.5t147.5 -89t95 -147.5t51.5 -198.5t15.5 -250.5q0 -343 -95 -508t-312 -190q22 -92 44 -124t75 -32q64 0 133 19l18 -111q-111 -27 -182 -27q-96 0 -141 54t-84 209q-112 4 -195.5 35t-140 86.5 t-90.5 142.5t-49 195t-15 251zM244 692q0 -120 9.5 -208t34.5 -162.5t66.5 -120.5t105.5 -71.5t152 -25.5t151.5 25t105 71.5t66 121t34.5 162.5t10 208q0 119 -10 208t-34.5 165t-66 123t-105.5 73.5t-151 26.5q-88 0 -152.5 -26.5t-105.5 -73.5t-66 -123t-34.5 -164.5 t-9.5 -208.5z" />
<glyph unicode="R" horiz-adv-x="1120" d="M137 0v1401q169 12 373 12q126 0 217 -21.5t157.5 -71t99 -133t32.5 -204.5q0 -153 -49 -247t-168 -154q105 -227 233 -582h-151q-84 243 -215 535q-115 -11 -158 -11q-33 0 -90 3t-98 5l-41 3v-535h-142zM279 653q161 -8 233 -8q184 0 271 76.5t87 259.5q0 90 -23 151 t-71 96t-112.5 49.5t-157.5 14.5q-125 0 -227 -8v-631z" />
<glyph unicode="S" horiz-adv-x="1048" d="M115 1042q0 205 103 288t323 83q72 0 190.5 -15.5t183.5 -33.5l-22 -123q-55 17 -168 33t-174 16q-160 0 -226.5 -49.5t-66.5 -191.5q0 -68 10 -107t43.5 -70t86.5 -49.5t151 -40.5q87 -19 143 -35.5t103.5 -40t73 -50t43.5 -68t24 -91t6 -122.5q0 -211 -108.5 -303 t-331.5 -92q-72 0 -192 15t-193 30l22 127q71 -17 180.5 -33.5t169.5 -16.5q155 0 233.5 59.5t78.5 196.5q0 80 -10 125t-45 79t-88 52.5t-154 40.5q-122 27 -193 54t-117.5 72t-62.5 105t-16 156z" />
<glyph unicode="T" horiz-adv-x="923" d="M37 1264v127h868v-127h-301v-1264h-141v1264h-426z" />
<glyph unicode="U" horiz-adv-x="1191" d="M131 381v1010h141v-1006q0 -285 324 -285q163 0 243.5 69.5t80.5 215.5v1006h141v-1010q0 -206 -117 -303.5t-348 -97.5t-348 97.5t-117 303.5z" />
<glyph unicode="V" horiz-adv-x="1116" d="M57 1391h154q22 -99 50.5 -212t51 -198.5t60.5 -222t57 -201.5t65 -224.5t60 -207.5h8q246 848 344 1266h152q-124 -538 -402 -1391h-200q-254 768 -400 1391z" />
<glyph unicode="W" horiz-adv-x="1660" d="M59 1391h146q117 -582 315 -1258h6q172 412 267 713q-68 248 -131 545h153q158 -726 326 -1258h6q189 595 305 1258h150q-124 -678 -355 -1391h-182q-97 284 -209 717l-47 -139q-128 -388 -215 -578h-182q-233 768 -353 1391z" />
<glyph unicode="X" horiz-adv-x="1075" d="M39 0l401 717l-364 674h168l299 -584h4l293 584h164l-367 -676l399 -715h-174l-330 616h-4l-325 -616h-164z" />
<glyph unicode="Y" horiz-adv-x="1062" d="M51 1391h166l320 -654h6l315 654h156l-410 -785v-606h-141v606z" />
<glyph unicode="Z" horiz-adv-x="1032" d="M100 0v104l648 1164h-648v123h811v-101l-651 -1167h680v-123h-840z" />
<glyph unicode="[" horiz-adv-x="655" d="M182 -319v1937h418v-115h-289v-1708h289v-114h-418z" />
<glyph unicode="\" d="M31 1393l104 59l836 -1477l-103 -59z" />
<glyph unicode="]" horiz-adv-x="655" d="M55 -203h289v1704h-289v117h420v-1937h-420v116z" />
<glyph unicode="^" d="M109 1026l366 469h100l367 -469l-98 -59l-318 407l-319 -407z" />
<glyph unicode="_" d="M0 -182h1036v-111h-1036v111z" />
<glyph unicode="`" d="M281 1401l47 102l415 -217l-45 -90z" />
<glyph unicode="a" horiz-adv-x="1003" d="M109 385q0 59 37 94t100 43l485 70q0 64 -1.5 103t-7 79.5t-16.5 62.5t-29 43t-46 30t-65 14.5t-89 5.5q-152 0 -323 -47l-21 106q192 51 363 51q52 0 93.5 -3.5t76 -13t60.5 -21t46.5 -32.5t34.5 -41.5t24.5 -54.5t16 -66t9 -80.5t4.5 -93t1 -108.5v-526h-119l-2 174 q-32 -104 -101 -148t-191 -44q-191 0 -265.5 91t-74.5 312zM238 373q0 -164 50.5 -226.5t182.5 -62.5q148 0 205 89t57 306v17l-450 -70q-22 -1 -33.5 -16t-11.5 -37z" />
<glyph unicode="b" horiz-adv-x="1034" d="M145 8v1413l131 11v-471q49 27 127 53t125 26q111 0 185 -25.5t125 -86.5t73.5 -162t22.5 -254q0 -136 -23.5 -231.5t-76.5 -163.5t-142 -100.5t-219 -32.5q-134 0 -328 24zM276 111q122 -17 195 -17q82 0 138.5 18t100.5 63t65.5 128.5t21.5 208.5q0 162 -30 252 t-92 126t-173 36q-43 0 -114 -24t-112 -48v-743z" />
<glyph unicode="c" horiz-adv-x="876" d="M100 514q0 151 23 251.5t74 162t126.5 87t186.5 25.5q115 0 270 -34l-16 -115q-151 31 -252 31q-158 0 -216 -93.5t-58 -314.5q0 -229 61.5 -320.5t228.5 -91.5q103 0 246 33l19 -117q-162 -34 -281 -34q-155 0 -243 49.5t-128.5 164t-40.5 316.5z" />
<glyph unicode="d" horiz-adv-x="1028" d="M100 512q0 282 108.5 405t319.5 123q78 0 224 -30v411l131 11v-1432h-115l-8 94q-126 -110 -277 -110q-136 0 -217.5 48t-123.5 164.5t-42 315.5zM238 514q0 -236 60.5 -326t215.5 -90q119 0 238 101v704q-36 8 -106 17.5t-99 9.5q-77 0 -132 -20.5t-96 -67.5t-61 -128.5 t-20 -199.5z" />
<glyph unicode="e" horiz-adv-x="980" d="M100 512q0 282 95.5 405t308.5 123q204 0 289.5 -91.5t85.5 -323.5q0 -65 -30.5 -97t-100.5 -39l-512 -51q5 -103 19 -166t47.5 -105.5t87 -58.5t140.5 -16q136 0 304 41l18 -108q-182 -41 -338 -41q-116 0 -191.5 24t-127 84.5t-73.5 161.5t-22 258zM236 537l469 53 q21 3 33 16.5t12 32.5q0 93 -13.5 151t-45.5 89.5t-75 43t-112 11.5q-148 0 -208 -87.5t-60 -309.5z" />
<glyph unicode="f" horiz-adv-x="647" d="M61 915v107h127q0 60 2 102t7 86.5t14 74.5t23.5 59t36 47t50.5 32.5t67 20.5t87 6q85 0 174 -14l-12 -109q-73 12 -152 12q-103 0 -135.5 -63t-32.5 -252h308v-109h-306v-915h-131v915h-127z" />
<glyph unicode="g" horiz-adv-x="1054" d="M72 -152q0 94 46 152.5t150 124.5q-47 29 -47 94q0 20 26 59.5t54 67.5q-98 42 -148.5 117t-50.5 201q0 186 98 281t283 95q142 0 240 -57l248 74l30 -111l-206 -45q75 -72 75 -237q0 -176 -95 -260.5t-283 -84.5q-18 0 -99 7q-19 -18 -38 -49t-19 -48q0 -32 43 -44 t244 -35q94 -11 155.5 -28.5t108 -50.5t67.5 -85.5t21 -130.5q0 -158 -108 -239t-339 -81q-237 0 -346.5 77t-109.5 236zM201 -139q0 -118 74.5 -172t256.5 -54q162 0 236 54t74 159q0 54 -15 88.5t-53 56.5t-86.5 33.5t-132.5 22.5q-128 14 -203 27q-79 -50 -115 -100.5 t-36 -114.5zM233 666q0 -248 250 -248q126 0 190 60.5t64 187.5q0 136 -62 203t-192 67q-125 0 -187.5 -69t-62.5 -201z" />
<glyph unicode="h" horiz-adv-x="1044" d="M145 0v1421l131 11v-463q176 71 269 71q201 0 280.5 -90.5t79.5 -300.5v-649h-131v639q0 163 -59 225t-215 62q-70 0 -224 -60v-866h-131z" />
<glyph unicode="i" horiz-adv-x="432" d="M135 1298q0 76 80 76q82 0 82 -76q0 -75 -82 -75q-80 0 -80 75zM152 0v1024h131v-1024h-131z" />
<glyph unicode="j" horiz-adv-x="434" d="M-39 -397l10 108q40 -8 72 -8q40 0 62.5 18t35.5 73t13 155v1075h131v-1079q0 -142 -23 -219.5t-68 -105.5t-126 -28q-8 0 -107 11zM137 1298q0 76 80 76q82 0 82 -76q0 -75 -82 -75q-80 0 -80 75z" />
<glyph unicode="k" horiz-adv-x="925" d="M145 0v1421l131 11v-869l97 21q145 172 334 440h153q-165 -243 -364 -483q182 -236 383 -541h-154q-185 272 -344 465l-105 -23v-442h-131z" />
<glyph unicode="l" horiz-adv-x="432" d="M152 0v1421l131 11v-1432h-131z" />
<glyph unicode="m" horiz-adv-x="1654" d="M145 0v1024h121l6 -90q62 47 141 76.5t152 29.5q98 0 166.5 -25t114.5 -91q214 116 328 116q188 0 263.5 -91.5t75.5 -299.5v-649h-131v639q0 162 -52 224.5t-195 62.5q-44 0 -127.5 -33t-130.5 -66q18 -37 18 -192v-635h-131v639q0 92 -8.5 144t-36.5 86t-74 45.5 t-127 11.5q-48 0 -117 -27t-125 -72v-827h-131z" />
<glyph unicode="n" horiz-adv-x="1044" d="M145 0v1024h121l6 -94q79 58 147.5 84t143.5 26q189 0 265.5 -90.5t76.5 -300.5v-649h-131v639q0 162 -54 224.5t-204 62.5q-115 0 -240 -101v-825h-131z" />
<glyph unicode="o" horiz-adv-x="1028" d="M100 514q0 280 94.5 404t319.5 124t319.5 -124t94.5 -404q0 -283 -93.5 -407.5t-320.5 -124.5t-320.5 124.5t-93.5 407.5zM238 514q0 -225 59 -322.5t217 -97.5t217.5 97.5t59.5 322.5t-59.5 320.5t-217.5 95.5t-217 -95t-59 -321z" />
<glyph unicode="p" horiz-adv-x="1032" d="M145 -401v1425h125l4 -92q135 108 277 108q111 0 186.5 -35t117.5 -106t59.5 -164t17.5 -225q0 -123 -21 -215.5t-57.5 -150.5t-91.5 -94t-116.5 -50t-139.5 -14q-85 0 -230 26v-413h-131zM276 117q135 -23 205 -23q59 0 104.5 11t86 40t67 75t41.5 119t15 171 q0 159 -31 251t-90 128.5t-158 36.5q-121 0 -240 -101v-708z" />
<glyph unicode="q" horiz-adv-x="1026" d="M100 514q0 143 29.5 244.5t88.5 163t141.5 89t195.5 27.5q139 0 326 -26v-1413h-131v440q-48 -17 -129.5 -36t-124.5 -19q-212 0 -304 120t-92 410zM238 514q0 -229 63.5 -322.5t224.5 -93.5q40 0 112 17t112 32v764q-31 6 -96 11.5t-97 5.5q-81 0 -138.5 -20t-99 -67 t-61.5 -128t-20 -199z" />
<glyph unicode="r" horiz-adv-x="641" d="M145 0v1024h125l4 -119q160 112 328 135v-137q-76 -7 -169.5 -38.5t-156.5 -69.5v-795h-131z" />
<glyph unicode="s" horiz-adv-x="923" d="M109 33l18 112q73 -21 167 -37t161 -16q126 0 176.5 43.5t50.5 163.5q0 89 -41.5 121t-183.5 59q-84 16 -136.5 30.5t-95 35t-64 49.5t-32 68t-10.5 96q0 85 22.5 140.5t69.5 86.5t109 43t153 12q133 0 326 -41l-15 -108q-164 41 -303 41q-51 0 -83.5 -3.5t-63 -13.5 t-47 -29t-26 -50t-9.5 -76q0 -34 7.5 -57t22 -40t47.5 -30t73.5 -23.5t109.5 -23.5q96 -18 151 -36.5t91.5 -51t48.5 -77.5t12 -120q0 -180 -77.5 -248.5t-268.5 -68.5q-155 0 -360 49z" />
<glyph unicode="t" horiz-adv-x="698" d="M57 915v107h127v201l131 26v-225h299v-109h-299v-499q0 -74 2.5 -119t12 -88t28 -65t49 -35t76.5 -13q35 0 129 13l13 -107q-74 -16 -168 -16q-40 0 -72 4t-58 14t-45.5 21.5t-34.5 33.5t-25.5 41.5t-17.5 54.5t-11 63.5t-6 77t-2.5 87t-0.5 100.5v432h-127z" />
<glyph unicode="u" horiz-adv-x="1044" d="M141 375v649h129v-639q0 -163 53.5 -225t204.5 -62q115 0 240 101v825h131v-1024h-121l-6 94q-80 -59 -147.5 -84.5t-143.5 -25.5q-191 0 -265.5 89.5t-74.5 301.5z" />
<glyph unicode="v" horiz-adv-x="935" d="M59 1024h142q37 -194 114 -462.5t152 -455.5q78 182 155 450t115 468h137q-54 -261 -139.5 -532.5t-183.5 -491.5h-170q-95 217 -180.5 489t-141.5 535z" />
<glyph unicode="w" horiz-adv-x="1445" d="M59 1024h140q38 -191 118.5 -472.5t147.5 -447.5q56 114 119.5 287.5t93.5 288.5q-48 166 -78 344h137q40 -215 109 -473.5t143 -446.5q73 181 150 456.5t106 463.5h139q-39 -234 -122.5 -517.5t-178.5 -506.5h-176q-40 86 -95.5 250.5t-82.5 275.5q-21 -93 -84 -262 t-115 -264h-161q-87 204 -172 489t-138 535z" />
<glyph unicode="x" horiz-adv-x="933" d="M70 0l311 516l-293 508h160l221 -418h2l223 418h150l-287 -496l305 -528h-153l-246 428h-2l-242 -428h-149z" />
<glyph unicode="y" horiz-adv-x="940" d="M66 1024h137q35 -188 115 -457t155 -454h2q72 178 149 445.5t115 465.5h138q-48 -246 -138 -537t-200 -530q-58 -129 -105 -203q-44 -71 -84 -105t-103 -49.5t-173 -15.5v117q97 0 149 19t90 77q45 65 105 197q-215 384 -352 1030z" />
<glyph unicode="z" horiz-adv-x="929" d="M109 92l540 821h-530v111h680l10 -100l-535 -811h541v-113h-694z" />
<glyph unicode="{" horiz-adv-x="675" d="M37 598v102q73 23 110.5 50t56.5 77.5t19 137.5l-20 245q0 206 94 295.5t328 120.5l12 -115q-115 -18 -177.5 -50t-94 -97.5t-31.5 -179.5l18 -250q0 -122 -47 -186t-149 -99q71 -29 110.5 -59t62.5 -84.5t23 -138.5l-18 -258q0 -84 15.5 -138t55 -90t91.5 -55.5 t141 -38.5l-16 -117q-121 19 -196.5 46t-127.5 76t-73 121t-21 181l20 246q0 66 -9 107.5t-33.5 70t-55.5 44.5t-88 36z" />
<glyph unicode="|" horiz-adv-x="413" d="M141 -494v2010h127v-2010h-127z" />
<glyph unicode="}" horiz-adv-x="675" d="M37 1511l14 115q234 -31 327 -120.5t93 -295.5l-18 -247q0 -87 19 -137t56.5 -76.5t110.5 -49.5v-102q-46 -16 -72.5 -29t-51.5 -32t-36.5 -44.5t-18.5 -62.5t-7 -90l18 -246q0 -109 -21 -181t-73 -121t-127.5 -76t-196.5 -46l-14 117q89 19 141 38.5t91.5 55.5t55 90 t15.5 138l-18 258q0 121 43.5 180t144.5 102q-97 35 -142.5 99.5t-45.5 185.5l18 250q0 114 -32 179.5t-94.5 97.5t-178.5 50z" />
<glyph unicode="~" d="M63 598q78 81 139 118.5t124 37.5q49 0 107.5 -31t103 -67.5t97 -67.5t89.5 -31q65 0 184 119l68 -86q-74 -78 -133 -116t-117 -38q-49 0 -108 31t-103.5 67.5t-97 67.5t-90.5 31q-77 0 -195 -121z" />
<glyph unicode="&#xa1;" horiz-adv-x="505" d="M160 948q0 54 21.5 75t70.5 21t70.5 -21t21.5 -75t-22.5 -79t-69.5 -25t-69.5 25t-22.5 79zM186 -379l9 1020h114l8 -1020h-131z" />
<glyph unicode="&#xa2;" d="M145 496q0 142 23.5 238t74 152.5t119.5 81.5t170 29l21 248l121 -10l-21 -240q95 -9 238 -37l-12 -108q-166 24 -240 29l-88 -775q167 0 336 33l18 -112q-60 -15 -154.5 -26t-162.5 -11q-29 0 -39 2l-23 -266l-123 8l23 270q-150 41 -215.5 152t-65.5 342zM274 496 q0 -175 42 -261t149 -118l86 764q-154 -3 -215.5 -91t-61.5 -294z" />
<glyph unicode="&#xa3;" d="M80 0v117h194q39 175 39 299q0 123 -18 307h-215v115h201l-13 135q0 196 78.5 281t231.5 85q140 0 323 -39l-18 -112q-165 33 -291 33q-100 0 -144.5 -60.5t-44.5 -199.5l11 -123h450v-115h-436q21 -215 21 -307q0 -109 -39 -299h360l184 24l11 -116l-195 -25h-690z" />
<glyph unicode="&#xa4;" d="M59 180l164 162q-80 92 -92 213q6 78 39 139q-58 52 -96 117q10 35 41 62t71 38q70 -44 109 -80q80 54 170 60q141 -12 244 -123l163 164l82 -80l-180 -176q34 -69 39 -133q-6 -88 -55 -166l194 -197l-82 -82l-188 193q-92 -76 -203 -82q-91 6 -170 59l-170 -170z M276 516q0 -100 69.5 -175t164.5 -75q94 0 164.5 75t70.5 175t-70.5 175t-164.5 75q-68 0 -123 -39l12 -20q-10 -33 -39.5 -60t-66.5 -39q-17 -49 -17 -92z" />
<glyph unicode="&#xa5;" d="M47 1319h156l311 -647h6l314 647h157l-282 -543h243v-106h-299l-65 -123v-123h364v-102h-364v-322h-135v322h-369v102h369v123l-68 123h-301v106h248z" />
<glyph unicode="&#xa6;" horiz-adv-x="413" d="M139 305h129v-799h-129v799zM139 748v768h129v-768h-129z" />
<glyph unicode="&#xa7;" horiz-adv-x="933" d="M90 575q0 97 25.5 159t67.5 91t110 45q-83 29 -120.5 77.5t-37.5 139.5q0 159 84.5 221t263.5 62q125 0 326 -41l-18 -115q-180 46 -295 46q-124 0 -175 -33.5t-51 -141.5q0 -81 47.5 -112t214.5 -64q97 -20 150.5 -38t91 -50.5t50 -78t12.5 -121.5q0 -127 -43 -189 t-144 -92q38 -13 64 -27.5t49 -38.5t34 -61.5t11 -89.5q0 -187 -74.5 -260.5t-265.5 -73.5q-154 0 -367 51l23 115q191 -55 321 -55q127 0 178.5 44t51.5 162q0 90 -43.5 124t-186.5 61q-211 39 -282.5 94.5t-71.5 189.5zM221 575q0 -80 56 -114t223 -68q57 10 90.5 22 t62 36.5t40.5 64.5t12 102q0 90 -37.5 123.5t-153.5 57.5l-80 16q-66 -11 -103.5 -24t-64 -40t-36 -68t-9.5 -108z" />
<glyph unicode="&#xa8;" horiz-adv-x="815" d="M117 1341q0 35 20 56.5t56 21.5q37 0 57 -21.5t20 -56.5t-20 -55t-57 -20q-36 0 -56 20.5t-20 54.5zM539 1341q0 35 19 56.5t56 21.5q36 0 56 -21.5t20 -56.5q0 -34 -20 -54.5t-56 -20.5q-37 0 -56 20t-19 55z" />
<glyph unicode="&#xa9;" horiz-adv-x="1454" d="M88 571q0 283 177.5 462t461.5 179t461.5 -179t177.5 -462t-177.5 -462t-461.5 -179q-285 0 -462 178t-177 463zM170 571q0 -254 152.5 -408.5t404.5 -154.5q253 0 404 153.5t151 409.5q0 252 -151.5 408t-403.5 156q-251 0 -404 -156t-153 -408zM416 575q0 192 67 284.5 t240 92.5q102 0 233 -30l-16 -99q-125 27 -205 27q-60 0 -99.5 -20t-60 -59.5t-28.5 -85t-8 -110.5q0 -62 9 -108.5t31.5 -85.5t66 -59.5t106.5 -20.5q75 0 200 27l19 -99q-123 -30 -230 -30q-175 0 -250 94t-75 282z" />
<glyph unicode="&#xaa;" horiz-adv-x="536" d="M66 915q0 67 69 76l256 37q0 80 -24.5 109.5t-100.5 29.5q-88 0 -178 -24l-12 74q114 28 200 28q118 0 160.5 -46.5t42.5 -164.5v-313h-86v88q-18 -53 -54 -75.5t-97 -22.5q-96 0 -136 48t-40 156zM70 496v73h409v-73h-409zM158 907q0 -69 19.5 -98t80.5 -29q75 0 104 39 t29 133v15l-211 -33q-22 -3 -22 -27z" />
<glyph unicode="&#xab;" horiz-adv-x="1077" d="M106 455v143l396 307v-147l-289 -228l289 -231v-149zM555 455v143l395 307v-147l-291 -228l291 -231v-149z" />
<glyph unicode="&#xac;" d="M63 596v115h912v-441h-119v326h-793z" />
<glyph unicode="&#xad;" horiz-adv-x="897" d="M162 473v115h573v-115h-573z" />
<glyph unicode="&#xae;" horiz-adv-x="1024" d="M0 903q0 224 143.5 366t368.5 142t368.5 -142t143.5 -366t-144 -367t-368 -143t-368 143t-144 367zM66 903q0 -198 124 -322t322 -124t321 123.5t123 322.5q0 198 -123 322.5t-321 124.5t-322 -124.5t-124 -322.5zM315 614v584q128 14 189 14q116 0 178.5 -44.5 t62.5 -147.5q0 -70 -27.5 -112t-84.5 -66q58 -103 110 -228h-63q-37 84 -105 217q-54 -6 -86 -6q-49 0 -114 6v-217h-60zM375 885q31 -2 114 -2q102 0 147.5 27t45.5 110q0 77 -47 106t-137 29q-37 0 -123 -8v-262z" />
<glyph unicode="&#xaf;" horiz-adv-x="925" d="M143 1290v105h627v-105h-627z" />
<glyph unicode="&#xb0;" d="M147 1145q0 120 83 200t208 80t208 -80t83 -200t-83.5 -200.5t-207.5 -80.5t-207.5 80.5t-83.5 200.5zM266 1145q0 -79 48 -130.5t124 -51.5q74 0 122 51.5t48 130.5t-48 130.5t-122 51.5q-76 0 -124 -51.5t-48 -130.5z" />
<glyph unicode="&#xb1;" d="M45 96v113h946v-113h-946zM45 621v112h416v316h114v-316h416v-112h-416v-295h-114v295h-416z" />
<glyph unicode="&#xb2;" horiz-adv-x="536" d="M49 1421q143 54 213 54q211 0 211 -205q0 -62 -18 -103t-69.5 -97t-184.5 -179h293v-98h-433v94l170 149q92 90 115 127.5t23 93.5q0 117 -119 117q-66 0 -178 -45z" />
<glyph unicode="&#xb3;" horiz-adv-x="536" d="M41 807l14 88q105 -25 191 -25q147 0 147 115q0 53 -34.5 72t-145.5 30h-86v78h88q91 12 122.5 39t31.5 88q0 54 -30.5 73t-94.5 19t-176 -41l-21 80q46 20 106.5 36t100.5 16q106 0 162.5 -38t56.5 -130q0 -74 -23.5 -108t-95.5 -60v-2q74 -14 109 -50t35 -100 q0 -109 -61 -158t-179 -49q-82 0 -217 27z" />
<glyph unicode="&#xb4;" d="M276 1286l416 217l47 -102l-420 -205z" />
<glyph unicode="&#xb5;" d="M135 -397v1421h131v-639q0 -162 53 -224.5t205 -62.5q115 0 240 101v825h131v-1024h-121l-8 94q-75 -58 -137 -82t-131 -24q-99 0 -157.5 27t-88.5 83l10 -108v-387h-127z" />
<glyph unicode="&#xb6;" d="M72 981q0 124 27 208.5t86.5 135t145.5 72.5t212 22h534v-116h-123v-1303h-133v1303h-225v-1303h-74v1303q-90 -2 -146.5 -14.5t-100.5 -47t-63 -98t-19 -162.5q0 -84 15.5 -139.5t51 -90t84 -52t123.5 -27.5v-115q-105 10 -177 36t-122 75.5t-73 126t-23 186.5z" />
<glyph unicode="&#xb7;" horiz-adv-x="532" d="M176 567q0 58 21.5 84.5t68.5 26.5q48 0 70 -26.5t22 -84.5q0 -59 -22 -84.5t-70 -25.5t-69 25.5t-21 84.5z" />
<glyph unicode="&#xb8;" horiz-adv-x="772" d="M256 -473l10 84q35 -10 94 -10q56 0 81.5 22.5t25.5 73.5q0 50 -25 71t-82 21q-52 0 -88 -8l-12 74q83 18 133 18q103 0 155 -42t52 -136q0 -96 -52 -139t-155 -43q-72 0 -137 14z" />
<glyph unicode="&#xb9;" horiz-adv-x="536" d="M53 1372l217 96h84v-579h142v-94h-424v94h178v469l-170 -74z" />
<glyph unicode="&#xba;" horiz-adv-x="536" d="M57 977q0 135 52 201.5t163 66.5t162 -66t51 -202q0 -134 -51 -201t-162 -67t-163 67t-52 201zM72 496v73h403v-73h-403zM152 977q0 -97 26.5 -141.5t93.5 -44.5q66 0 91.5 44t25.5 142t-25.5 142t-91.5 44q-67 0 -93.5 -44.5t-26.5 -141.5z" />
<glyph unicode="&#xbb;" horiz-adv-x="1077" d="M127 150v149l291 231l-291 228v147l395 -307v-143zM575 150v149l289 231l-289 228v147l396 -307v-143z" />
<glyph unicode="&#xbc;" horiz-adv-x="1073" d="M29 1260l217 96h84v-580h141v-94h-424v94h178v469l-170 -74zM274 8l238 684l176 662l100 -37l-213 -621l-198 -725zM565 119v86l156 469h119l-168 -457h188l6 215h95v-217h81v-96h-81v-131h-105v131h-291z" />
<glyph unicode="&#xbd;" horiz-adv-x="1073" d="M29 1260l217 96h84v-580h141v-94h-424v94h178v469l-170 -74zM276 8l238 684l176 662l101 -37l-213 -621l-199 -725zM629 627q141 53 213 53q211 0 211 -205q0 -48 -6 -75.5t-38 -72t-79 -90.5t-150 -141h293v-98h-432v94l170 150q91 90 114 127.5t23 93.5q0 117 -119 117 q-66 0 -178 -45z" />
<glyph unicode="&#xbe;" horiz-adv-x="1073" d="M12 694l15 88q101 -24 190 -24q148 0 148 114q0 53 -35.5 72.5t-145.5 30.5h-86v78h88q91 12 122.5 39t31.5 88q0 54 -30.5 73t-94.5 19t-176 -41l-21 80q46 20 106 35.5t101 15.5q106 0 162.5 -38t56.5 -130q0 -74 -23.5 -108t-94.5 -60v-2q74 -14 108.5 -50t34.5 -100 q0 -109 -61 -157.5t-179 -48.5q-87 0 -217 26zM279 8l237 684l176 662l101 -37l-213 -621l-199 -725zM569 119v86l156 469h119l-168 -457h188l6 215h95v-217h82v-96h-82v-131h-105v131h-291z" />
<glyph unicode="&#xbf;" horiz-adv-x="741" d="M55 -94q0 76 7.5 124t33 95t60 84.5t102.5 99.5q79 75 108 127t29 125q0 41 -4 115h117q16 -70 16 -135q0 -98 -40 -161.5t-150 -162.5q-91 -82 -118.5 -139t-27.5 -154q0 -194 234 -194q102 0 242 43l22 -111q-149 -49 -285 -49q-346 0 -346 293zM354 940q0 54 21.5 75 t70.5 21t71 -21t22 -75t-22.5 -79t-70.5 -25q-47 0 -69.5 25t-22.5 79z" />
<glyph unicode="&#xc0;" horiz-adv-x="1144" d="M61 0q72 304 191.5 702.5t228.5 688.5h187q112 -299 231 -695.5t186 -695.5h-145q-34 145 -86 322h-561q-25 -77 -90 -322h-142zM274 1702l41 110l433 -182l-35 -98zM315 438h514q-51 187 -129.5 449.5t-124.5 388.5h-8q-44 -130 -123 -393t-129 -445z" />
<glyph unicode="&#xc1;" horiz-adv-x="1144" d="M61 0q72 304 191.5 702.5t228.5 688.5h187q112 -299 231 -695.5t186 -695.5h-145q-34 145 -86 322h-561q-25 -77 -90 -322h-142zM315 438h514q-51 187 -129.5 449.5t-124.5 388.5h-8q-44 -130 -123 -393t-129 -445zM342 1628l430 182l43 -110l-438 -168z" />
<glyph unicode="&#xc2;" horiz-adv-x="1144" d="M61 0q72 304 191.5 702.5t228.5 688.5h187q112 -299 231 -695.5t186 -695.5h-145q-34 145 -86 322h-561q-25 -77 -90 -322h-142zM240 1534l278 274h109l278 -274h-145l-189 180l-184 -180h-147zM315 438h514q-51 187 -129.5 449.5t-124.5 388.5h-8q-44 -130 -123 -393 t-129 -445z" />
<glyph unicode="&#xc3;" horiz-adv-x="1144" d="M61 0q72 304 191.5 702.5t228.5 688.5h187q112 -299 231 -695.5t186 -695.5h-145q-34 145 -86 322h-561q-25 -77 -90 -322h-142zM246 1647q116 112 200 112q46 0 93.5 -26t91 -52t78.5 -26q41 0 131 80l53 -78q-111 -115 -184 -115q-35 0 -71.5 17t-63 37.5t-60.5 37.5 t-65 17q-50 0 -144 -84zM315 438h514q-51 187 -129.5 449.5t-124.5 388.5h-8q-44 -130 -123 -393t-129 -445z" />
<glyph unicode="&#xc4;" horiz-adv-x="1144" d="M61 0q72 304 191.5 702.5t228.5 688.5h187q112 -299 231 -695.5t186 -695.5h-145q-34 145 -86 322h-561q-25 -77 -90 -322h-142zM279 1642q0 37 21.5 59.5t59.5 22.5t60 -22.5t22 -59.5t-22 -59t-60 -22t-59.5 22t-21.5 59zM315 438h514q-51 187 -129.5 449.5 t-124.5 388.5h-8q-44 -130 -123 -393t-129 -445zM700 1642q0 37 21 59.5t59 22.5t60 -22.5t22 -59.5t-22 -59t-60 -22t-59 22t-21 59z" />
<glyph unicode="&#xc5;" horiz-adv-x="1144" d="M61 0q72 304 191.5 702.5t228.5 688.5h187q112 -299 231 -695.5t186 -695.5h-145q-34 145 -86 322h-561q-25 -77 -90 -322h-142zM315 438h514q-51 187 -129.5 449.5t-124.5 388.5h-8q-44 -130 -123 -393t-129 -445zM352 1651q0 94 60.5 147t160.5 53q101 0 161.5 -53 t60.5 -147q0 -93 -60.5 -146t-161.5 -53q-100 0 -160.5 53.5t-60.5 145.5zM449 1651q0 -54 32.5 -82.5t91.5 -28.5q60 0 93.5 28.5t33.5 82.5t-33 82t-94 28q-59 0 -91.5 -28.5t-32.5 -81.5z" />
<glyph unicode="&#xc6;" horiz-adv-x="1622" d="M43 0q102 310 296.5 790.5t256.5 600.5h874v-121h-647q25 -113 97 -504h505v-113h-489q15 -77 31 -170.5t34 -202.5t27 -159h555v-121h-678q-19 155 -51 322h-539q-50 -114 -120 -322h-152zM344 436h496q-99 612 -146 836h-10q-34 -74 -164 -389.5t-176 -446.5z" />
<glyph unicode="&#xc7;" horiz-adv-x="1007" d="M100 711q0 195 31.5 329.5t98 216.5t162 118t231.5 36q138 0 305 -37l-17 -125q-153 35 -278 35q-136 0 -219 -53.5t-125.5 -180t-42.5 -339.5q0 -142 17.5 -247.5t48.5 -173.5t80.5 -109.5t107 -58t133.5 -16.5q134 0 282 37l21 -125q-160 -38 -311 -38 q-102 0 -179.5 20t-144.5 70t-110 132t-67 209.5t-24 299.5zM401 -473l11 84q10 -3 54.5 -6.5t63.5 -3.5q60 0 87.5 21.5t27.5 74.5t-26.5 72.5t-88.5 19.5q-74 0 -114 -8l-13 74q88 18 160 18q109 0 162 -40t53 -138t-53.5 -140t-161.5 -42q-97 0 -162 14z" />
<glyph unicode="&#xc8;" horiz-adv-x="1026" d="M137 0v1391h772v-121h-633v-504h519v-115h-519v-530h639v-121h-778zM276 1702l41 110l433 -182l-35 -98z" />
<glyph unicode="&#xc9;" horiz-adv-x="1026" d="M137 0v1391h772v-121h-633v-504h519v-115h-519v-530h639v-121h-778zM293 1628l430 182l43 -110l-438 -168z" />
<glyph unicode="&#xca;" horiz-adv-x="1026" d="M137 0v1391h772v-121h-633v-504h519v-115h-519v-530h639v-121h-778zM195 1534l278 274h109l278 -274h-145l-189 180l-184 -180h-147z" />
<glyph unicode="&#xcb;" horiz-adv-x="1026" d="M137 0v1391h772v-121h-633v-504h519v-115h-519v-530h639v-121h-778zM244 1642q0 37 22 59.5t60 22.5t60 -22.5t22 -59.5t-22 -59t-60 -22t-60 22t-22 59zM666 1642q0 37 20.5 59.5t58.5 22.5t60 -22.5t22 -59.5t-22 -59t-60 -22t-58.5 22t-20.5 59z" />
<glyph unicode="&#xcc;" horiz-adv-x="432" d="M-96 1702l41 110l432 -182l-35 -98zM154 0v1391h139v-1391h-139z" />
<glyph unicode="&#xcd;" horiz-adv-x="432" d="M29 1628l430 182l43 -110l-439 -168zM154 0v1391h139v-1391h-139z" />
<glyph unicode="&#xce;" horiz-adv-x="432" d="M-119 1534l279 274h108l279 -274h-146l-188 180l-184 -180h-148zM154 0v1391h139v-1391h-139z" />
<glyph unicode="&#xcf;" horiz-adv-x="432" d="M-78 1642q0 37 22 59.5t60 22.5t60 -22.5t22 -59.5t-22 -59t-60 -22t-60 22t-22 59zM154 0v1391h139v-1391h-139zM344 1642q0 37 21 59.5t59 22.5t60 -22.5t22 -59.5t-22 -59t-60 -22t-59 22t-21 59z" />
<glyph unicode="&#xd0;" horiz-adv-x="1181" d="M14 645v111h123v643q184 12 338 12q124 0 215.5 -18.5t168.5 -65t124.5 -124t73.5 -197t26 -283.5q0 -167 -25.5 -292.5t-74 -211.5t-124 -140t-170.5 -78t-218 -24q-89 0 -334 15v653h-123zM276 111q113 -11 203 -11t159 19t126.5 63t94.5 115.5t57 178t20 247.5 q0 136 -19.5 234.5t-55 162t-93.5 101t-126.5 52.5t-162.5 15q-145 0 -203 -6v-526h365v-111h-365v-534z" />
<glyph unicode="&#xd1;" horiz-adv-x="1265" d="M137 0v1391h129l723 -893v893h139v-1391h-135l-4 301l-713 883v-1184h-139zM315 1647q116 112 201 112q46 0 93.5 -26t90.5 -52t78 -26q41 0 131 80l54 -78q-111 -115 -185 -115q-35 0 -71.5 17t-63 37.5t-60.5 37.5t-65 17q-49 0 -143 -84z" />
<glyph unicode="&#xd2;" horiz-adv-x="1232" d="M100 694q0 180 24.5 307t82.5 222t159.5 141.5t249.5 46.5q120 0 209 -31t148 -88.5t95.5 -147.5t51.5 -198.5t15 -251.5q0 -182 -24.5 -309t-83.5 -221t-160.5 -139t-250.5 -45q-120 0 -208.5 30.5t-147.5 86.5t-94.5 145.5t-50.5 198t-15 253.5zM248 694 q0 -120 9.5 -208t34 -163.5t66 -121.5t105.5 -71.5t153 -25.5t153.5 25.5t106 71.5t66 121t34 163.5t9.5 208.5q0 118 -9.5 206t-34.5 163.5t-66 122.5t-106 73.5t-153 26.5t-153 -26.5t-106 -73.5t-65.5 -122.5t-34 -163t-9.5 -206.5zM350 1702l41 110l432 -182l-35 -98z " />
<glyph unicode="&#xd3;" horiz-adv-x="1232" d="M100 694q0 180 24.5 307t82.5 222t159.5 141.5t249.5 46.5q120 0 209 -31t148 -88.5t95.5 -147.5t51.5 -198.5t15 -251.5q0 -182 -24.5 -309t-83.5 -221t-160.5 -139t-250.5 -45q-120 0 -208.5 30.5t-147.5 86.5t-94.5 145.5t-50.5 198t-15 253.5zM248 694 q0 -120 9.5 -208t34 -163.5t66 -121.5t105.5 -71.5t153 -25.5t153.5 25.5t106 71.5t66 121t34 163.5t9.5 208.5q0 118 -9.5 206t-34.5 163.5t-66 122.5t-106 73.5t-153 26.5t-153 -26.5t-106 -73.5t-65.5 -122.5t-34 -163t-9.5 -206.5zM406 1628l430 182l43 -110l-439 -168z " />
<glyph unicode="&#xd4;" horiz-adv-x="1232" d="M100 694q0 180 24.5 307t82.5 222t159.5 141.5t249.5 46.5q120 0 209 -31t148 -88.5t95.5 -147.5t51.5 -198.5t15 -251.5q0 -182 -24.5 -309t-83.5 -221t-160.5 -139t-250.5 -45q-120 0 -208.5 30.5t-147.5 86.5t-94.5 145.5t-50.5 198t-15 253.5zM248 694 q0 -120 9.5 -208t34 -163.5t66 -121.5t105.5 -71.5t153 -25.5t153.5 25.5t106 71.5t66 121t34 163.5t9.5 208.5q0 118 -9.5 206t-34.5 163.5t-66 122.5t-106 73.5t-153 26.5t-153 -26.5t-106 -73.5t-65.5 -122.5t-34 -163t-9.5 -206.5zM285 1534l278 274h109l278 -274h-145 l-189 180l-184 -180h-147z" />
<glyph unicode="&#xd5;" horiz-adv-x="1232" d="M100 694q0 180 24.5 307t82.5 222t159.5 141.5t249.5 46.5q120 0 209 -31t148 -88.5t95.5 -147.5t51.5 -198.5t15 -251.5q0 -182 -24.5 -309t-83.5 -221t-160.5 -139t-250.5 -45q-120 0 -208.5 30.5t-147.5 86.5t-94.5 145.5t-50.5 198t-15 253.5zM248 694 q0 -120 9.5 -208t34 -163.5t66 -121.5t105.5 -71.5t153 -25.5t153.5 25.5t106 71.5t66 121t34 163.5t9.5 208.5q0 118 -9.5 206t-34.5 163.5t-66 122.5t-106 73.5t-153 26.5t-153 -26.5t-106 -73.5t-65.5 -122.5t-34 -163t-9.5 -206.5zM291 1647q116 112 201 112 q46 0 93.5 -26t90.5 -52t78 -26q41 0 131 80l53 -78q-111 -115 -184 -115q-35 0 -71.5 17t-63 37.5t-60.5 37.5t-65 17q-50 0 -144 -84z" />
<glyph unicode="&#xd6;" horiz-adv-x="1232" d="M100 694q0 180 24.5 307t82.5 222t159.5 141.5t249.5 46.5q120 0 209 -31t148 -88.5t95.5 -147.5t51.5 -198.5t15 -251.5q0 -182 -24.5 -309t-83.5 -221t-160.5 -139t-250.5 -45q-120 0 -208.5 30.5t-147.5 86.5t-94.5 145.5t-50.5 198t-15 253.5zM248 694 q0 -120 9.5 -208t34 -163.5t66 -121.5t105.5 -71.5t153 -25.5t153.5 25.5t106 71.5t66 121t34 163.5t9.5 208.5q0 118 -9.5 206t-34.5 163.5t-66 122.5t-106 73.5t-153 26.5t-153 -26.5t-106 -73.5t-65.5 -122.5t-34 -163t-9.5 -206.5zM326 1642q0 37 22 59.5t60 22.5 t59.5 -22.5t21.5 -59.5t-21.5 -59t-59.5 -22t-60 22t-22 59zM748 1642q0 37 20.5 59.5t58.5 22.5t60 -22.5t22 -59.5t-22 -59t-60 -22t-58.5 22t-20.5 59z" />
<glyph unicode="&#xd7;" d="M125 287l315 313l-315 315l80 78l313 -313l313 313l80 -78l-315 -315l315 -313l-80 -78l-313 313l-313 -313z" />
<glyph unicode="&#xd8;" horiz-adv-x="1232" d="M100 694q0 180 24.5 307t82.5 222t159.5 141.5t249.5 46.5q192 0 310 -82l6 19l110 194l101 -57l-111 -197l-31 -31q134 -165 134 -563q0 -182 -24.5 -309t-83.5 -221t-160.5 -139t-250.5 -45q-193 0 -305 75l-12 -43l-96 -168l-101 58l105 180l35 35q-142 162 -142 577z M248 694q0 -323 80 -452l51 96l424 747l65 107q-85 94 -252 94q-88 0 -153 -26.5t-106 -73.5t-65.5 -122.5t-34 -163t-9.5 -206.5zM369 188q87 -84 247 -84q89 0 153.5 25.5t106 71.5t66 121t34 163.5t9.5 208.5q0 313 -78 445l-57 -107l-420 -743z" />
<glyph unicode="&#xd9;" horiz-adv-x="1191" d="M131 381v1010h141v-1006q0 -285 324 -285q163 0 243.5 69.5t80.5 215.5v1006h141v-1010q0 -206 -117 -303.5t-348 -97.5t-348 97.5t-117 303.5zM262 1702l41 110l432 -182l-35 -98z" />
<glyph unicode="&#xda;" horiz-adv-x="1191" d="M131 381v1010h141v-1006q0 -285 324 -285q163 0 243.5 69.5t80.5 215.5v1006h141v-1010q0 -206 -117 -303.5t-348 -97.5t-348 97.5t-117 303.5zM358 1628l430 182l43 -110l-438 -168z" />
<glyph unicode="&#xdb;" horiz-adv-x="1191" d="M131 381v1010h141v-1006q0 -285 324 -285q163 0 243.5 69.5t80.5 215.5v1006h141v-1010q0 -206 -117 -303.5t-348 -97.5t-348 97.5t-117 303.5zM258 1534l279 274h108l279 -274h-146l-188 180l-184 -180h-148z" />
<glyph unicode="&#xdc;" horiz-adv-x="1191" d="M131 381v1010h141v-1006q0 -285 324 -285q163 0 243.5 69.5t80.5 215.5v1006h141v-1010q0 -206 -117 -303.5t-348 -97.5t-348 97.5t-117 303.5zM317 1642q0 37 22 59.5t60 22.5t60 -22.5t22 -59.5t-22 -59t-60 -22t-60 22t-22 59zM739 1642q0 37 21 59.5t59 22.5 t60 -22.5t22 -59.5t-22 -59t-60 -22t-59 22t-21 59z" />
<glyph unicode="&#xdd;" horiz-adv-x="1062" d="M51 1391h166l320 -654h6l315 654h156l-410 -785v-606h-141v606zM324 1630l430 182l43 -110l-439 -168z" />
<glyph unicode="&#xde;" horiz-adv-x="1091" d="M137 0v1391h139v-238q133 10 226 10q133 0 224.5 -23t156 -76.5t94 -142t29.5 -219.5q0 -252 -119 -360.5t-371 -108.5q-81 0 -125 7v118q25 -2 96 -2q103 0 171.5 16.5t115.5 57t67.5 107t20.5 168.5q0 99 -21 164.5t-68 103t-112.5 52.5t-164.5 15q-80 0 -220 -8v-1032 h-139z" />
<glyph unicode="&#xdf;" horiz-adv-x="1202" d="M61 930v94h129q2 119 22 197.5t65 132t119 77t186 23.5q192 0 290.5 -61t98.5 -207q0 -80 -27 -127t-98 -107q-51 -41 -75.5 -63t-45 -51.5t-20.5 -55.5q0 -31 9.5 -50.5t46 -48.5t113.5 -73q139 -78 179.5 -132.5t40.5 -164.5q0 -171 -67 -250t-228 -79q-140 0 -316 45 l17 118q147 -47 262 -47q109 0 152.5 50.5t43.5 160.5q0 44 -5.5 69t-29.5 51.5t-56.5 47t-102.5 58.5q-119 65 -155 113t-36 120q0 32 9.5 58t37.5 57.5t44 46.5t65 57q62 53 85.5 89.5t23.5 90.5q0 94 -66 133t-197 39q-78 0 -127 -17.5t-77 -60t-38.5 -102.5t-10.5 -155 v-1006h-132v930h-129z" />
<glyph unicode="&#xe0;" horiz-adv-x="1003" d="M109 385q0 59 37 94t100 43l485 70q0 64 -1.5 103t-7 79.5t-16.5 62.5t-29 43t-46 30t-65 14.5t-89 5.5q-152 0 -323 -47l-21 106q192 51 363 51q52 0 93.5 -3.5t76 -13t60.5 -21t46.5 -32.5t34.5 -41.5t24.5 -54.5t16 -66t9 -80.5t4.5 -93t1 -108.5v-526h-119l-2 174 q-32 -104 -101 -148t-191 -44q-191 0 -265.5 91t-74.5 312zM238 373q0 -164 50.5 -226.5t182.5 -62.5q148 0 205 89t57 306v17l-450 -70q-22 -1 -33.5 -16t-11.5 -37zM246 1401l47 102l416 -217l-45 -90z" />
<glyph unicode="&#xe1;" horiz-adv-x="1003" d="M109 385q0 59 37 94t100 43l485 70q0 64 -1.5 103t-7 79.5t-16.5 62.5t-29 43t-46 30t-65 14.5t-89 5.5q-152 0 -323 -47l-21 106q192 51 363 51q52 0 93.5 -3.5t76 -13t60.5 -21t46.5 -32.5t34.5 -41.5t24.5 -54.5t16 -66t9 -80.5t4.5 -93t1 -108.5v-526h-119l-2 174 q-32 -104 -101 -148t-191 -44q-191 0 -265.5 91t-74.5 312zM238 373q0 -164 50.5 -226.5t182.5 -62.5q148 0 205 89t57 306v17l-450 -70q-22 -1 -33.5 -16t-11.5 -37zM260 1286l416 217l47 -102l-420 -205z" />
<glyph unicode="&#xe2;" horiz-adv-x="1003" d="M109 385q0 59 37 94t100 43l485 70q0 64 -1.5 103t-7 79.5t-16.5 62.5t-29 43t-46 30t-65 14.5t-89 5.5q-152 0 -323 -47l-21 106q192 51 363 51q52 0 93.5 -3.5t76 -13t60.5 -21t46.5 -32.5t34.5 -41.5t24.5 -54.5t16 -66t9 -80.5t4.5 -93t1 -108.5v-526h-119l-2 174 q-32 -104 -101 -148t-191 -44q-191 0 -265.5 91t-74.5 312zM162 1198l260 330h110l263 -330h-136l-182 236l-182 -236h-133zM238 373q0 -164 50.5 -226.5t182.5 -62.5q148 0 205 89t57 306v17l-450 -70q-22 -1 -33.5 -16t-11.5 -37z" />
<glyph unicode="&#xe3;" horiz-adv-x="1003" d="M109 385q0 59 37 94t100 43l485 70q0 64 -1.5 103t-7 79.5t-16.5 62.5t-29 43t-46 30t-65 14.5t-89 5.5q-152 0 -323 -47l-21 106q192 51 363 51q52 0 93.5 -3.5t76 -13t60.5 -21t46.5 -32.5t34.5 -41.5t24.5 -54.5t16 -66t9 -80.5t4.5 -93t1 -108.5v-526h-119l-2 174 q-32 -104 -101 -148t-191 -44q-191 0 -265.5 91t-74.5 312zM154 1337q119 115 200 115q42 0 81.5 -16.5t64.5 -36.5t56.5 -36.5t59.5 -16.5q38 0 132 79l53 -77q-111 -115 -185 -115q-41 0 -79 17t-62.5 38t-57 38t-63.5 17q-49 0 -141 -83zM238 373q0 -164 50.5 -226.5 t182.5 -62.5q148 0 205 89t57 306v17l-450 -70q-22 -1 -33.5 -16t-11.5 -37z" />
<glyph unicode="&#xe4;" horiz-adv-x="1003" d="M109 385q0 59 37 94t100 43l485 70q0 64 -1.5 103t-7 79.5t-16.5 62.5t-29 43t-46 30t-65 14.5t-89 5.5q-152 0 -323 -47l-21 106q192 51 363 51q52 0 93.5 -3.5t76 -13t60.5 -21t46.5 -32.5t34.5 -41.5t24.5 -54.5t16 -66t9 -80.5t4.5 -93t1 -108.5v-526h-119l-2 174 q-32 -104 -101 -148t-191 -44q-191 0 -265.5 91t-74.5 312zM215 1341q0 35 20 56.5t56 21.5q37 0 57.5 -21.5t20.5 -56.5t-20.5 -55t-57.5 -20q-36 0 -56 20.5t-20 54.5zM238 373q0 -164 50.5 -226.5t182.5 -62.5q148 0 205 89t57 306v17l-450 -70q-22 -1 -33.5 -16 t-11.5 -37zM637 1341q0 35 19.5 56.5t56.5 21.5q36 0 55.5 -21.5t19.5 -56.5q0 -34 -19.5 -54.5t-55.5 -20.5q-37 0 -56.5 20t-19.5 55z" />
<glyph unicode="&#xe5;" horiz-adv-x="1003" d="M109 385q0 59 37 94t100 43l485 70q0 64 -1.5 103t-7 79.5t-16.5 62.5t-29 43t-46 30t-65 14.5t-89 5.5q-152 0 -323 -47l-21 106q192 51 363 51q52 0 93.5 -3.5t76 -13t60.5 -21t46.5 -32.5t34.5 -41.5t24.5 -54.5t16 -66t9 -80.5t4.5 -93t1 -108.5v-526h-119l-2 174 q-32 -104 -101 -148t-191 -44q-191 0 -265.5 91t-74.5 312zM238 373q0 -164 50.5 -226.5t182.5 -62.5q148 0 205 89t57 306v17l-450 -70q-22 -1 -33.5 -16t-11.5 -37zM279 1348q0 94 60.5 147t160.5 53q101 0 161 -53t60 -147q0 -93 -60 -146t-161 -53q-100 0 -160.5 53.5 t-60.5 145.5zM375 1348q0 -54 33 -82.5t92 -28.5q60 0 93.5 28.5t33.5 82.5t-33 82t-94 28q-59 0 -92 -28.5t-33 -81.5z" />
<glyph unicode="&#xe6;" horiz-adv-x="1601" d="M109 385q0 114 137 131l485 70q0 64 -1.5 103.5t-7 80.5t-16.5 63.5t-29 44t-46 31.5t-65 15.5t-89 5.5q-152 0 -323 -47l-21 106q192 51 363 51q156 0 225.5 -50.5t81.5 -182.5q34 130 111 181.5t212 51.5q203 0 288 -92t85 -323q0 -65 -29.5 -97t-99.5 -39l-512 -51 q9 -201 69 -273.5t228 -72.5q114 0 297 39l18 -108q-173 -39 -333 -39q-162 0 -246 57.5t-111 198.5q-20 -138 -99.5 -198t-231.5 -60q-191 0 -265.5 91t-74.5 312zM238 375q0 -166 50.5 -228.5t182.5 -62.5q103 0 158 33.5t79.5 114t24.5 231.5v26l-450 -67q-45 -6 -45 -47 zM858 537l469 55q45 6 45 49q0 92 -13.5 149.5t-45.5 89t-75 43t-112 11.5q-148 0 -208 -87.5t-60 -309.5z" />
<glyph unicode="&#xe7;" horiz-adv-x="876" d="M100 514q0 151 23 251.5t74 162t126.5 87t186.5 25.5q115 0 270 -34l-16 -115q-151 31 -252 31q-158 0 -216 -93.5t-58 -314.5q0 -229 61.5 -320.5t228.5 -91.5q103 0 246 33l19 -117q-162 -34 -281 -34q-155 0 -243 49.5t-128.5 164t-40.5 316.5zM313 -473l11 84 q35 -10 94 -10q56 0 81 22.5t25 73.5q0 50 -25 71t-81 21q-52 0 -88 -8l-13 74q83 18 134 18q103 0 154.5 -42t51.5 -136q0 -96 -51.5 -139t-154.5 -43q-73 0 -138 14z" />
<glyph unicode="&#xe8;" horiz-adv-x="980" d="M100 512q0 282 95.5 405t308.5 123q204 0 289.5 -91.5t85.5 -323.5q0 -65 -30.5 -97t-100.5 -39l-512 -51q5 -103 19 -166t47.5 -105.5t87 -58.5t140.5 -16q136 0 304 41l18 -108q-182 -41 -338 -41q-116 0 -191.5 24t-127 84.5t-73.5 161.5t-22 258zM236 537l469 53 q21 3 33 16.5t12 32.5q0 93 -13.5 151t-45.5 89.5t-75 43t-112 11.5q-148 0 -208 -87.5t-60 -309.5zM242 1401l47 102l416 -217l-46 -90z" />
<glyph unicode="&#xe9;" horiz-adv-x="980" d="M100 512q0 282 95.5 405t308.5 123q204 0 289.5 -91.5t85.5 -323.5q0 -65 -30.5 -97t-100.5 -39l-512 -51q5 -103 19 -166t47.5 -105.5t87 -58.5t140.5 -16q136 0 304 41l18 -108q-182 -41 -338 -41q-116 0 -191.5 24t-127 84.5t-73.5 161.5t-22 258zM236 537l469 53 q21 3 33 16.5t12 32.5q0 93 -13.5 151t-45.5 89.5t-75 43t-112 11.5q-148 0 -208 -87.5t-60 -309.5zM281 1286l415 217l47 -102l-419 -205z" />
<glyph unicode="&#xea;" horiz-adv-x="980" d="M100 512q0 282 95.5 405t308.5 123q204 0 289.5 -91.5t85.5 -323.5q0 -65 -30.5 -97t-100.5 -39l-512 -51q5 -103 19 -166t47.5 -105.5t87 -58.5t140.5 -16q136 0 304 41l18 -108q-182 -41 -338 -41q-116 0 -191.5 24t-127 84.5t-73.5 161.5t-22 258zM186 1198l260 330 h111l262 -330h-135l-182 236l-183 -236h-133zM236 537l469 53q21 3 33 16.5t12 32.5q0 93 -13.5 151t-45.5 89.5t-75 43t-112 11.5q-148 0 -208 -87.5t-60 -309.5z" />
<glyph unicode="&#xeb;" horiz-adv-x="980" d="M100 512q0 282 95.5 405t308.5 123q204 0 289.5 -91.5t85.5 -323.5q0 -65 -30.5 -97t-100.5 -39l-512 -51q5 -103 19 -166t47.5 -105.5t87 -58.5t140.5 -16q136 0 304 41l18 -108q-182 -41 -338 -41q-116 0 -191.5 24t-127 84.5t-73.5 161.5t-22 258zM199 1341 q0 35 19.5 56.5t55.5 21.5q37 0 57.5 -21.5t20.5 -56.5t-20 -55t-58 -20q-36 0 -55.5 20.5t-19.5 54.5zM236 537l469 53q21 3 33 16.5t12 32.5q0 93 -13.5 151t-45.5 89.5t-75 43t-112 11.5q-148 0 -208 -87.5t-60 -309.5zM621 1341q0 35 19 56.5t56 21.5q36 0 56 -21.5 t20 -56.5q0 -34 -20 -54.5t-56 -20.5q-37 0 -56 20t-19 55z" />
<glyph unicode="&#xec;" horiz-adv-x="432" d="M-72 1401l47 102l416 -217l-45 -90zM152 0v1024h129v-1024h-129z" />
<glyph unicode="&#xed;" horiz-adv-x="432" d="M-12 1286l415 217l48 -102l-420 -205zM152 0v1024h129v-1024h-129z" />
<glyph unicode="&#xee;" horiz-adv-x="432" d="M-102 1198l260 330h110l262 -330h-135l-182 236l-182 -236h-133zM152 0v1024h129v-1024h-129z" />
<glyph unicode="&#xef;" horiz-adv-x="432" d="M-70 1341q0 35 20 56.5t56 21.5q37 0 57.5 -21.5t20.5 -56.5t-20 -55t-58 -20q-36 0 -56 20.5t-20 54.5zM152 0v1024h129v-1024h-129zM352 1341q0 35 19.5 56.5t56.5 21.5q36 0 56 -21.5t20 -56.5q0 -34 -20 -54.5t-56 -20.5q-37 0 -56.5 20t-19.5 55z" />
<glyph unicode="&#xf0;" horiz-adv-x="1052" d="M109 518q0 220 99 336.5t292 116.5q126 0 274 -74q-32 182 -151 326l-240 -129l-37 75l223 125q-35 38 -95.5 80.5t-103.5 65.5l-44 24l90 58q18 -8 47.5 -23t99.5 -63t115 -97l207 107l35 -78l-187 -102q109 -151 156 -316.5t47 -398.5q0 -305 -96.5 -437t-329.5 -132 q-220 0 -310.5 126.5t-90.5 409.5zM244 518q0 -229 59 -326.5t213 -97.5q164 0 223.5 101.5t59.5 355.5q0 36 -5 120t-10 113q-160 80 -272 80q-268 0 -268 -346z" />
<glyph unicode="&#xf1;" horiz-adv-x="1046" d="M145 0v1024h121l6 -94q79 58 147.5 84t143.5 26q189 0 265.5 -90.5t76.5 -300.5v-649h-131v639q0 162 -54 224.5t-204 62.5q-115 0 -240 -101v-825h-131zM184 1337q119 115 201 115q42 0 81.5 -16.5t64.5 -36.5t56.5 -36.5t59.5 -16.5q37 0 131 79l53 -77 q-111 -115 -184 -115q-41 0 -79 17t-62.5 38t-57 38t-63.5 17q-49 0 -141 -83z" />
<glyph unicode="&#xf2;" horiz-adv-x="1028" d="M100 514q0 280 94.5 404t319.5 124t319.5 -124t94.5 -404q0 -283 -93.5 -407.5t-320.5 -124.5t-320.5 124.5t-93.5 407.5zM238 514q0 -225 59 -322.5t217 -97.5t217.5 97.5t59.5 322.5t-59.5 320.5t-217.5 95.5t-217 -95t-59 -321zM256 1401l47 102l416 -217l-45 -90z " />
<glyph unicode="&#xf3;" horiz-adv-x="1028" d="M100 514q0 280 94.5 404t319.5 124t319.5 -124t94.5 -404q0 -283 -93.5 -407.5t-320.5 -124.5t-320.5 124.5t-93.5 407.5zM238 514q0 -225 59 -322.5t217 -97.5t217.5 97.5t59.5 322.5t-59.5 320.5t-217.5 95.5t-217 -95t-59 -321zM295 1286l416 217l47 -102l-420 -205z " />
<glyph unicode="&#xf4;" horiz-adv-x="1028" d="M100 514q0 280 94.5 404t319.5 124t319.5 -124t94.5 -404q0 -283 -93.5 -407.5t-320.5 -124.5t-320.5 124.5t-93.5 407.5zM199 1198l260 330h110l262 -330h-135l-182 236l-182 -236h-133zM238 514q0 -225 59 -322.5t217 -97.5t217.5 97.5t59.5 322.5t-59.5 320.5 t-217.5 95.5t-217 -95t-59 -321z" />
<glyph unicode="&#xf5;" horiz-adv-x="1028" d="M100 514q0 280 94.5 404t319.5 124t319.5 -124t94.5 -404q0 -283 -93.5 -407.5t-320.5 -124.5t-320.5 124.5t-93.5 407.5zM184 1337q119 115 201 115q42 0 81.5 -16.5t64.5 -36.5t56.5 -36.5t59.5 -16.5q37 0 131 79l53 -77q-111 -115 -184 -115q-41 0 -79 17t-62.5 38 t-57 38t-63.5 17q-49 0 -141 -83zM238 514q0 -225 59 -322.5t217 -97.5t217.5 97.5t59.5 322.5t-59.5 320.5t-217.5 95.5t-217 -95t-59 -321z" />
<glyph unicode="&#xf6;" horiz-adv-x="1028" d="M100 514q0 280 94.5 404t319.5 124t319.5 -124t94.5 -404q0 -283 -93.5 -407.5t-320.5 -124.5t-320.5 124.5t-93.5 407.5zM225 1341q0 35 20 56.5t56 21.5q37 0 57.5 -21.5t20.5 -56.5t-20.5 -55t-57.5 -20q-36 0 -56 20.5t-20 54.5zM238 514q0 -225 59 -322.5t217 -97.5 t217.5 97.5t59.5 322.5t-59.5 320.5t-217.5 95.5t-217 -95t-59 -321zM647 1341q0 35 19.5 56.5t56.5 21.5q36 0 56 -21.5t20 -56.5q0 -34 -20 -54.5t-56 -20.5q-37 0 -56.5 20t-19.5 55z" />
<glyph unicode="&#xf7;" d="M82 514v115h872v-115h-872zM426 246q0 102 92 102t92 -102q0 -51 -21.5 -73.5t-70.5 -22.5t-70.5 22.5t-21.5 73.5zM426 872q0 103 92 103t92 -103q0 -51 -21.5 -73.5t-70.5 -22.5t-70.5 22.5t-21.5 73.5z" />
<glyph unicode="&#xf8;" horiz-adv-x="1028" d="M72 -188l125 223l32 33q-68 62 -98.5 171t-30.5 275q0 280 94.5 404t319.5 124q138 0 227 -47l168 297l95 -53l-152 -264l-35 -39q111 -122 111 -422q0 -283 -93.5 -407.5t-320.5 -124.5q-128 0 -207 36l-145 -260zM238 514q0 -251 71 -342l53 117l320 596 q-60 45 -168 45q-158 0 -217 -95t-59 -321zM365 125q60 -31 149 -31q158 0 217.5 97.5t59.5 322.5q0 220 -56 313l-43 -94z" />
<glyph unicode="&#xf9;" horiz-adv-x="1046" d="M141 375v649h129v-639q0 -163 53.5 -225t204.5 -62q115 0 240 101v825h131v-1024h-121l-6 94q-80 -59 -147.5 -84.5t-143.5 -25.5q-191 0 -265.5 89.5t-74.5 301.5zM268 1401l47 102l416 -217l-45 -90z" />
<glyph unicode="&#xfa;" horiz-adv-x="1046" d="M141 375v649h129v-639q0 -163 53.5 -225t204.5 -62q115 0 240 101v825h131v-1024h-121l-6 94q-80 -59 -147.5 -84.5t-143.5 -25.5q-191 0 -265.5 89.5t-74.5 301.5zM307 1286l416 217l47 -102l-420 -205z" />
<glyph unicode="&#xfb;" horiz-adv-x="1046" d="M141 375v649h129v-639q0 -163 53.5 -225t204.5 -62q115 0 240 101v825h131v-1024h-121l-6 94q-80 -59 -147.5 -84.5t-143.5 -25.5q-191 0 -265.5 89.5t-74.5 301.5zM205 1198l260 330h110l263 -330h-136l-182 236l-182 -236h-133z" />
<glyph unicode="&#xfc;" horiz-adv-x="1046" d="M141 375v649h129v-639q0 -163 53.5 -225t204.5 -62q115 0 240 101v825h131v-1024h-121l-6 94q-80 -59 -147.5 -84.5t-143.5 -25.5q-191 0 -265.5 89.5t-74.5 301.5zM236 1341q0 35 19.5 56.5t55.5 21.5q37 0 57.5 -21.5t20.5 -56.5t-20.5 -55t-57.5 -20q-36 0 -55.5 20.5 t-19.5 54.5zM657 1341q0 35 19.5 56.5t56.5 21.5q36 0 56 -21.5t20 -56.5q0 -34 -20 -54.5t-56 -20.5q-37 0 -56.5 20t-19.5 55z" />
<glyph unicode="&#xfd;" horiz-adv-x="940" d="M66 1024h137q35 -188 115 -457t155 -454h2q72 178 149 445.5t115 465.5h138q-48 -246 -138 -537t-200 -530q-58 -129 -105 -203q-44 -71 -84 -105t-103 -49.5t-173 -15.5v117q97 0 149 19t90 77q45 65 105 197q-215 384 -352 1030zM315 1286l416 217l47 -102l-420 -205z " />
<glyph unicode="&#xfe;" horiz-adv-x="1038" d="M143 -403v1822l131 15v-471q57 27 136 52t135 25q134 0 216.5 -48.5t125.5 -166t43 -315.5q0 -123 -21 -215.5t-57.5 -150.5t-91.5 -94t-116.5 -50t-139.5 -14q-85 0 -230 26v-415h-131zM274 119q147 -25 205 -25q59 0 104.5 11t86 40t67 75t41.5 119t15 171 q0 159 -30.5 251t-89 128.5t-157.5 36.5q-59 0 -129.5 -24t-112.5 -50v-733z" />
<glyph unicode="&#xff;" horiz-adv-x="940" d="M66 1024h137q35 -188 115 -457t155 -454h2q72 178 149 445.5t115 465.5h138q-48 -246 -138 -537t-200 -530q-58 -129 -105 -203q-44 -71 -84 -105t-103 -49.5t-173 -15.5v117q97 0 149 19t90 77q45 65 105 197q-215 384 -352 1030zM186 1341q0 35 20 56.5t56 21.5 q37 0 57.5 -21.5t20.5 -56.5t-20 -55t-58 -20q-36 0 -56 20.5t-20 54.5zM608 1341q0 35 19.5 56.5t56.5 21.5q36 0 56 -21.5t20 -56.5q0 -34 -20 -54.5t-56 -20.5q-37 0 -56.5 20t-19.5 55z" />
<glyph unicode="&#x152;" horiz-adv-x="1712" d="M100 711q0 258 57.5 413t168.5 221t290 66q58 0 158 -6.5t144 -13.5h710v-121h-629v-504h519v-113h-519v-532h637v-121h-721q-44 -6 -141.5 -13t-157.5 -7q-99 0 -175 20t-142 70.5t-108.5 132.5t-66.5 209.5t-24 298.5zM246 711q0 -142 17.5 -248.5t48 -175t78 -110.5 t102 -58.5t124.5 -16.5q79 0 244 13v1163q-133 10 -244 10q-96 0 -163 -29t-114.5 -96t-70 -178.5t-22.5 -273.5z" />
<glyph unicode="&#x153;" horiz-adv-x="1667" d="M100 514q0 280 94.5 404t319.5 124q141 0 222 -48t118 -150q40 102 120.5 149t213.5 47q205 0 291 -91.5t86 -323.5q0 -65 -30.5 -97t-102.5 -39l-512 -51q5 -103 19.5 -166t48 -105t87 -58.5t139.5 -16.5q133 0 304 41l18 -110q-173 -39 -338 -39q-147 0 -229 41 t-119 143q-39 -96 -119 -141t-217 -45q-227 0 -320.5 124.5t-93.5 407.5zM238 514q0 -225 59 -322.5t217 -97.5t217.5 97.5t59.5 322.5t-59.5 320.5t-217.5 95.5t-217 -95t-59 -321zM920 537l469 55q45 6 45 49q0 92 -13.5 149.5t-45.5 89t-75 43t-112 11.5 q-148 0 -208 -87.5t-60 -309.5z" />
<glyph unicode="&#x178;" horiz-adv-x="1062" d="M51 1391h166l320 -654h6l315 654h156l-410 -785v-606h-141v606zM242 1645q0 37 22 59t60 22t60 -22t22 -59t-22 -59.5t-60 -22.5t-60 22.5t-22 59.5zM664 1645q0 37 20.5 59t58.5 22t60 -22t22 -59t-22 -59.5t-60 -22.5t-58.5 22.5t-20.5 59.5z" />
<glyph unicode="&#x2c6;" horiz-adv-x="925" d="M139 1198l260 330h111l262 -330h-135l-182 236l-183 -236h-133z" />
<glyph unicode="&#x2dc;" horiz-adv-x="913" d="M106 1337q119 115 201 115q42 0 81.5 -16.5t64.5 -36.5t56.5 -36.5t59.5 -16.5q37 0 131 79l54 -77q-111 -115 -185 -115q-41 0 -79 17t-62.5 38t-57 38t-63.5 17q-49 0 -141 -83z" />
<glyph unicode="&#x2000;" horiz-adv-x="925" />
<glyph unicode="&#x2001;" horiz-adv-x="1851" />
<glyph unicode="&#x2002;" horiz-adv-x="925" />
<glyph unicode="&#x2003;" horiz-adv-x="1851" />
<glyph unicode="&#x2004;" horiz-adv-x="617" />
<glyph unicode="&#x2005;" horiz-adv-x="462" />
<glyph unicode="&#x2006;" horiz-adv-x="308" />
<glyph unicode="&#x2007;" horiz-adv-x="308" />
<glyph unicode="&#x2008;" horiz-adv-x="231" />
<glyph unicode="&#x2009;" horiz-adv-x="370" />
<glyph unicode="&#x200a;" horiz-adv-x="102" />
<glyph unicode="&#x2010;" horiz-adv-x="897" d="M162 473v115h573v-115h-573z" />
<glyph unicode="&#x2011;" horiz-adv-x="897" d="M162 473v115h573v-115h-573z" />
<glyph unicode="&#x2012;" horiz-adv-x="897" d="M162 473v115h573v-115h-573z" />
<glyph unicode="&#x2013;" horiz-adv-x="1024" d="M0 485v105h1024v-105h-1024z" />
<glyph unicode="&#x2014;" horiz-adv-x="2048" d="M0 487v103h2048v-103h-2048z" />
<glyph unicode="&#x2018;" horiz-adv-x="458" d="M84 965l166 415l100 -24l-117 -430z" />
<glyph unicode="&#x2019;" horiz-adv-x="458" d="M109 948l116 430l150 -39l-166 -415z" />
<glyph unicode="&#x201a;" horiz-adv-x="458" d="M109 -270l116 430l150 -39l-166 -416z" />
<glyph unicode="&#x201c;" horiz-adv-x="763" d="M84 993l164 420l102 -24l-117 -435zM389 958l166 420l100 -24l-116 -434z" />
<glyph unicode="&#x201d;" horiz-adv-x="761" d="M109 944l116 434l150 -39l-166 -419zM414 909l116 434l150 -38l-164 -420z" />
<glyph unicode="&#x201e;" horiz-adv-x="761" d="M109 -274l116 434l150 -39l-166 -420zM414 -309l116 434l150 -39l-164 -420z" />
<glyph unicode="&#x2022;" d="M154 516q0 147 101.5 252.5t254.5 105.5q152 0 255 -105.5t103 -252.5t-103 -251.5t-255 -104.5q-153 0 -254.5 104.5t-101.5 251.5z" />
<glyph unicode="&#x2026;" horiz-adv-x="1519" d="M172 96q0 58 21.5 84.5t68.5 26.5q48 0 70 -26.5t22 -84.5q0 -59 -22 -84.5t-70 -25.5t-69 25.5t-21 84.5zM680 96q0 58 21.5 84.5t68.5 26.5q48 0 70 -26.5t22 -84.5q0 -59 -22 -84.5t-70 -25.5t-69 25.5t-21 84.5zM1200 96q0 58 21.5 84.5t68.5 26.5q48 0 70 -26.5 t22 -84.5q0 -59 -22 -84.5t-70 -25.5t-69 25.5t-21 84.5z" />
<glyph unicode="&#x202f;" horiz-adv-x="370" />
<glyph unicode="&#x2039;" horiz-adv-x="653" d="M106 457v143l406 307v-149l-299 -226l299 -231v-151z" />
<glyph unicode="&#x203a;" horiz-adv-x="653" d="M109 150v151l299 231l-299 226v149l405 -307v-143z" />
<glyph unicode="&#x205f;" horiz-adv-x="462" />
<glyph unicode="&#x20ac;" d="M4 475v94h121q-2 33 -2 103q0 63 2 90h-121v98h123q15 136 53 228.5t102.5 148t150 79t204.5 23.5q121 0 321 -34l-14 -111q-173 33 -301 33q-189 0 -269.5 -87t-101.5 -280h529v-96h-533q0 -14 -1 -43.5t-1 -46.5q0 -20 1 -53.5t1 -49.5h498v-96h-492q10 -97 31.5 -164 t63 -118.5t109.5 -76t165 -24.5q124 0 305 37l17 -111q-175 -38 -326 -38q-91 0 -159.5 12t-131 44.5t-104.5 87.5t-72 142.5t-43 208.5h-125z" />
<glyph unicode="&#x2122;" horiz-adv-x="1085" d="M8 1106v100h348v-100h-77v-512h-113v512h-158zM463 594v612h110l183 -385l168 385h112v-612h-98v436l-152 -356h-59l-166 356v-436h-98z" />
<glyph unicode="&#xe000;" horiz-adv-x="1024" d="M0 0v1024h1024v-1024h-1024z" />
</font>
</defs>
</svg>
